# xmcd CD database file generated by Grip 3.0.0
# 
# Track frame offsets:
#       152
#       18067
#       33845
# 
# Disc length: 679 seconds
# 
# Revision: 0
# Processed by: cddbd v1.4PL0 Copyright (c) Steve Scherf et al.
# Submitted via: Grip 3.0.0
# 
DISCID=1202a503
DTITLE=The Jon Spencer Blues Explosion - Talk About The Blues
DYEAR=1998
DGENRE=Blues
TTITLE0=Talk About The Blues
TTITLE1=Bacon
TTITLE2=Get Down Lover
EXTD=
EXTT0=
EXTT1=
EXTT2=
PLAYORDER=
